PathFileType	4	(x/y/z)	S06_BK_Cal_T01
DataRate	CameraRate	NumFrames	NumMarkers	Units	OrigDataRate	OrigDataStartFrame	OrigNumFrames
240	240	8	51	mm	240	721	2880
Frame#	Time	Sternum			R.Acromium			L.Acromium			Top.Head			R.ASIS			L.ASIS			R.PSIS			L.PSIS			R.Great.Tro			L.Great.Tro			R.Iliac.Crest			L.Iliac.Crest			V.Sacral			R.Thigh.Upper.Post			R.Thigh.Lower.Ant			R.Thigh.Lower.Post			R.Thigh.Upper.Ant			R.Knee.Lat			R.Knee.Med			R.Shank.Upper.Post			R.Shank.Lower.Ant			R.Shank.Lower.Post			R.Shank.Upper.Ant			R.Ankle.Lat			R.Ankle.Med			R.Heel.Upper			R.Heel.Med			R.Heel.Lat			R.Toe.Lat			R.Toe.Med			R.Toe.Tip			L.Thigh.Upper.Post			L.Thigh.Lower.Ant			L.Thigh.Lower.Post			L.Thigh.Upper.Ant			L.Knee.Lat			L.Knee.Med			L.Shank.Upper.Post			L.Shank.Lower.Ant			L.Shank.Lower.Post			L.Shank.Upper.Ant			L.Ankle.Lat			L.Ankle.Med			L.Heel.Upper			L.Heel.Med			L.Heel.Lat			L.Toe.Lat			L.Toe.Med			L.Toe.Tip			Cervical.Spine			Back			
		X1	Y1	Z1	X2	Y2	Z2	X3	Y3	Z3	X4	Y4	Z4	X5	Y5	Z5	X6	Y6	Z6	X7	Y7	Z7	X8	Y8	Z8	X9	Y9	Z9	X10	Y10	Z10	X11	Y11	Z11	X12	Y12	Z12	X13	Y13	Z13	X14	Y14	Z14	X15	Y15	Z15	X16	Y16	Z16	X17	Y17	Z17	X18	Y18	Z18	X19	Y19	Z19	X20	Y20	Z20	X21	Y21	Z21	X22	Y22	Z22	X23	Y23	Z23	X24	Y24	Z24	X25	Y25	Z25	X26	Y26	Z26	X27	Y27	Z27	X28	Y28	Z28	X29	Y29	Z29	X30	Y30	Z30	X31	Y31	Z31	X32	Y32	Z32	X33	Y33	Z33	X34	Y34	Z34	X35	Y35	Z35	X36	Y36	Z36	X37	Y37	Z37	X38	Y38	Z38	X39	Y39	Z39	X40	Y40	Z40	X41	Y41	Z41	X42	Y42	Z42	X43	Y43	Z43	X44	Y44	Z44	X45	Y45	Z45	X46	Y46	Z46	X47	Y47	Z47	X48	Y48	Z48	X49	Y49	Z49	X50	Y50	Z50	X51	Y51	Z51	

721	3	712.53	1241.1	324.74	598.14	1473.2	482.89	594.55	1467.1	152.28	675.86	1764.2	322.47	659.94	1007.7	448.76	665.95	1002.4	196.23	461.55	1029.7	351.56	462.99	1032.7	271.08	607.76	943.92	499.73	575.49	941.66	135.6	576.92	1085.2	477.38	600.11	1079.2	159.06	448.12	996.07	314.05	688.27	706.16	515.89	769.12	647.51	489.92	706.72	619.24	502.49	750.89	737.18	495.61	755.56	516.92	497.47	764.31	515.14	370.43	645.08	317.48	507.76	680.27	236.6	485.49	615.56	246.05	496.04	708.47	307.53	497.27	596.66	112.74	474.6	611.44	113.67	386.47	522.43	74.642	428.56	531.48	43.757	397.69	529.17	43.228	463.28	704.58	36.227	507.26	734.45	44.493	387.51	799.55	54.62	436.45	714.36	705.2	115.45	790.45	641.5	164.31	728	614.92	123.3	767.96	734.17	155.88	734.69	520.18	130.13	766.4	519.82	247.45	630.38	321.19	126.69	672.63	242.93	126.92	603.85	253.15	140.15	694.81	310.69	119.68	596.15	110.53	134.81	608.92	110.05	226.35	517.73	71.723	178.42	524.82	45.41	210.95	521.48	45.784	148.97	697.19	47.054	100.36	726.41	44.584	217.31	794.18	59.133	158.86	554.57	1506.5	318.46	476.4	1244.9	317.13
722	3.0042	712.53	1241.1	324.73	598.13	1473.2	482.88	594.53	1467.1	152.27	675.85	1764.2	322.46	659.96	1007.7	448.76	665.97	1002.4	196.22	461.56	1029.7	351.55	463	1032.7	271.08	607.78	943.93	499.72	575.5	941.65	135.59	576.93	1085.2	477.38	600.12	1079.2	159.05	448.14	996.06	314.05	688.28	706.17	515.9	769.13	647.51	489.93	706.73	619.23	502.51	750.9	737.18	495.63	755.57	516.92	497.49	764.32	515.14	370.45	645.08	317.48	507.76	680.27	236.6	485.5	615.56	246.05	496.05	708.47	307.52	497.28	596.66	112.74	474.6	611.44	113.67	386.47	522.43	74.642	428.56	531.48	43.755	397.69	529.17	43.228	463.28	704.58	36.226	507.26	734.45	44.495	387.52	799.55	54.621	436.45	714.36	705.19	115.43	790.46	641.49	164.29	728.01	614.92	123.28	767.97	734.16	155.85	734.7	520.18	130.11	766.42	519.81	247.43	630.38	321.19	126.68	672.63	242.93	126.91	603.85	253.15	140.14	694.81	310.68	119.67	596.15	110.53	134.81	608.92	110.05	226.35	517.73	71.723	178.42	524.82	45.41	210.95	521.48	45.784	148.97	697.19	47.052	100.36	726.41	44.586	217.31	794.18	59.133	158.86	554.57	1506.5	318.46	476.41	1244.9	317.13
723	3.0083	712.54	1241.1	324.72	598.12	1473.2	482.87	594.52	1467.1	152.26	675.84	1764.2	322.44	659.98	1007.7	448.75	665.98	1002.4	196.21	461.58	1029.7	351.54	463.01	1032.6	271.08	607.8	943.93	499.72	575.51	941.65	135.59	576.95	1085.2	477.37	600.13	1079.2	159.04	448.15	996.05	314.06	688.29	706.17	515.9	769.14	647.51	489.94	706.74	619.23	502.52	750.92	737.17	495.64	755.57	516.91	497.5	764.34	515.14	370.46	645.09	317.48	507.77	680.26	236.6	485.51	615.56	246.05	496.05	708.48	307.52	497.28	596.66	112.74	474.6	611.44	113.68	386.47	522.43	74.641	428.56	531.48	43.753	397.7	529.17	43.227	463.28	704.58	36.226	507.26	734.45	44.497	387.52	799.54	54.621	436.46	714.37	705.19	115.42	790.47	641.48	164.27	728.02	614.91	123.26	767.98	734.16	155.83	734.71	520.17	130.09	766.44	519.8	247.41	630.39	321.19	126.67	672.64	242.92	126.9	603.85	253.15	140.14	694.82	310.68	119.66	596.15	110.53	134.81	608.92	110.05	226.35	517.73	71.724	178.42	524.82	45.41	210.95	521.48	45.784	148.97	697.19	47.051	100.35	726.41	44.589	217.3	794.18	59.133	158.85	554.56	1506.5	318.45	476.41	1244.9	317.12
724	3.0125	712.54	1241.1	324.72	598.12	1473.2	482.85	594.51	1467.1	152.25	675.83	1764.2	322.43	660	1007.7	448.75	665.99	1002.4	196.2	461.59	1029.7	351.54	463.03	1032.6	271.08	607.83	943.93	499.72	575.52	941.64	135.58	576.96	1085.2	477.37	600.14	1079.2	159.04	448.17	996.04	314.06	688.31	706.17	515.91	769.15	647.5	489.95	706.75	619.23	502.53	750.93	737.17	495.65	755.58	516.91	497.51	764.35	515.13	370.47	645.09	317.47	507.77	680.27	236.6	485.51	615.56	246.05	496.05	708.48	307.52	497.29	596.66	112.74	474.6	611.44	113.68	386.47	522.43	74.641	428.56	531.48	43.751	397.7	529.17	43.226	463.28	704.57	36.225	507.26	734.45	44.499	387.52	799.54	54.622	436.46	714.37	705.18	115.41	790.48	641.47	164.24	728.02	614.9	123.25	768	734.15	155.81	734.72	520.16	130.08	766.46	519.8	247.39	630.4	321.19	126.66	672.64	242.92	126.89	603.86	253.15	140.13	694.82	310.67	119.65	596.15	110.52	134.81	608.92	110.06	226.35	517.73	71.724	178.42	524.82	45.409	210.95	521.48	45.784	148.97	697.19	47.05	100.35	726.41	44.591	217.3	794.18	59.133	158.85	554.55	1506.5	318.44	476.41	1244.9	317.12
725	3.0167	712.55	1241.1	324.71	598.11	1473.2	482.84	594.5	1467.1	152.24	675.81	1764.2	322.42	660.02	1007.7	448.74	666.01	1002.4	196.2	461.61	1029.7	351.54	463.04	1032.6	271.07	607.85	943.94	499.71	575.54	941.63	135.58	576.98	1085.2	477.37	600.15	1079.2	159.03	448.18	996.02	314.06	688.32	706.17	515.91	769.17	647.5	489.96	706.77	619.23	502.53	750.95	737.16	495.65	755.59	516.91	497.52	764.37	515.13	370.48	645.09	317.47	507.77	680.27	236.59	485.51	615.56	246.05	496.06	708.48	307.51	497.29	596.66	112.74	474.6	611.44	113.68	386.47	522.43	74.64	428.56	531.48	43.749	397.7	529.17	43.225	463.28	704.57	36.225	507.26	734.45	44.501	387.52	799.54	54.623	436.46	714.38	705.17	115.39	790.49	641.46	164.22	728.03	614.9	123.24	768.01	734.15	155.79	734.73	520.15	130.06	766.48	519.79	247.37	630.4	321.18	126.66	672.64	242.91	126.88	603.86	253.15	140.13	694.83	310.67	119.64	596.14	110.52	134.8	608.92	110.06	226.35	517.73	71.724	178.42	524.82	45.409	210.95	521.48	45.784	148.97	697.19	47.05	100.35	726.4	44.593	217.3	794.18	59.133	158.85	554.54	1506.5	318.43	476.42	1244.9	317.11
726	3.0208	712.56	1241.1	324.71	598.1	1473.2	482.83	594.49	1467.1	152.23	675.8	1764.2	322.4	660.04	1007.7	448.74	666.02	1002.4	196.19	461.63	1029.7	351.53	463.05	1032.6	271.07	607.88	943.94	499.71	575.55	941.62	135.57	576.99	1085.2	477.37	600.15	1079.2	159.02	448.2	996.01	314.06	688.34	706.17	515.92	769.18	647.49	489.96	706.78	619.22	502.54	750.96	737.16	495.66	755.6	516.9	497.52	764.38	515.12	370.48	645.1	317.47	507.78	680.27	236.59	485.51	615.57	246.05	496.06	708.49	307.51	497.3	596.66	112.74	474.6	611.44	113.68	386.47	522.43	74.639	428.56	531.47	43.747	397.7	529.17	43.224	463.28	704.57	36.225	507.27	734.45	44.503	387.52	799.54	54.624	436.46	714.39	705.16	115.38	790.5	641.45	164.2	728.04	614.89	123.23	768.02	734.14	155.76	734.74	520.14	130.05	766.51	519.78	247.36	630.41	321.18	126.65	672.65	242.91	126.87	603.87	253.15	140.12	694.83	310.66	119.64	596.14	110.52	134.8	608.92	110.06	226.35	517.74	71.725	178.42	524.82	45.409	210.95	521.48	45.784	148.97	697.19	47.049	100.35	726.4	44.595	217.3	794.18	59.133	158.85	554.53	1506.5	318.42	476.42	1244.9	317.11
727	3.025	712.56	1241.1	324.7	598.09	1473.2	482.82	594.48	1467.1	152.21	675.78	1764.2	322.39	660.06	1007.7	448.73	666.04	1002.4	196.18	461.65	1029.7	351.53	463.07	1032.6	271.07	607.9	943.94	499.71	575.57	941.62	135.57	577.01	1085.2	477.36	600.16	1079.1	159.01	448.22	996	314.07	688.35	706.16	515.92	769.2	647.49	489.97	706.8	619.22	502.54	750.98	737.15	495.66	755.61	516.9	497.53	764.4	515.11	370.49	645.1	317.46	507.78	680.27	236.58	485.52	615.57	246.05	496.06	708.49	307.51	497.3	596.67	112.74	474.6	611.45	113.68	386.48	522.43	74.638	428.56	531.47	43.746	397.7	529.17	43.223	463.28	704.57	36.225	507.27	734.45	44.505	387.52	799.54	54.625	436.46	714.39	705.15	115.37	790.51	641.44	164.19	728.05	614.88	123.22	768.04	734.13	155.74	734.76	520.13	130.04	766.53	519.78	247.34	630.42	321.18	126.65	672.65	242.91	126.87	603.87	253.15	140.12	694.84	310.66	119.63	596.14	110.52	134.8	608.92	110.06	226.35	517.74	71.725	178.42	524.82	45.408	210.95	521.48	45.783	148.97	697.19	47.049	100.35	726.4	44.597	217.29	794.18	59.133	158.85	554.52	1506.5	318.41	476.42	1244.9	317.1
728	3.0292	712.57	1241.1	324.7	598.08	1473.2	482.8	594.46	1467	152.2	675.76	1764.2	322.38	660.09	1007.7	448.73	666.05	1002.4	196.18	461.67	1029.6	351.53	463.08	1032.6	271.07	607.93	943.95	499.7	575.58	941.61	135.57	577.02	1085.2	477.36	600.17	1079.1	159.01	448.24	995.99	314.07	688.37	706.16	515.92	769.22	647.49	489.97	706.82	619.21	502.55	751	737.15	495.66	755.62	516.89	497.53	764.41	515.1	370.49	645.1	317.46	507.77	680.28	236.58	485.52	615.58	246.05	496.06	708.5	307.5	497.3	596.67	112.74	474.6	611.45	113.68	386.48	522.43	74.638	428.56	531.47	43.746	397.7	529.17	43.222	463.28	704.57	36.226	507.27	734.45	44.506	387.52	799.54	54.626	436.46	714.4	705.15	115.36	790.53	641.43	164.17	728.06	614.87	123.21	768.05	734.12	155.73	734.77	520.12	130.03	766.56	519.77	247.33	630.43	321.17	126.64	672.65	242.9	126.86	603.88	253.15	140.12	694.85	310.65	119.62	596.14	110.52	134.8	608.92	110.06	226.34	517.74	71.726	178.42	524.82	45.408	210.95	521.48	45.783	148.96	697.19	47.049	100.35	726.4	44.598	217.29	794.18	59.134	158.85	554.51	1506.5	318.4	476.43	1244.9	317.1
